<svg xmlns="http://www.w3.org/2000/svg" width="256" height="256" viewBox="0 0 100 100"><rect width="100" height="100" rx="50" fill="#805ad5"></rect><path fill="#fff" d="M22.55 67.14L16.95 67.14L16.95 32.88L22.55 32.88L22.55 67.14ZM31.60 67.14L31.60 32.88L41.77 32.88Q48.85 32.88 52.00 34.94Q55.16 37.00 55.16 41.46L55.16 41.46Q55.16 44.46 53.61 46.45Q52.06 48.44 49.16 48.96L49.16 48.96L49.16 49.19Q52.77 49.87 54.46 51.88Q56.16 53.88 56.16 57.30L56.16 57.30Q56.16 61.92 52.94 64.53Q49.72 67.14 43.98 67.14L43.98 67.14L31.60 67.14ZM37.20 37.57L37.20 47.04L42.59 47.04Q46.11 47.04 47.73 45.92Q49.34 44.81 49.34 42.14L49.34 42.14Q49.34 39.72 47.60 38.64Q45.85 37.57 42.05 37.57L42.05 37.57L37.20 37.57ZM42.88 51.58L37.20 51.58L37.20 62.43L43.16 62.43Q46.67 62.43 48.46 61.09Q50.26 59.74 50.26 56.83L50.26 56.83Q50.26 54.16 48.43 52.87Q46.60 51.58 42.88 51.58L42.88 51.58ZM83.05 57.84L83.05 57.84Q83.05 62.41 79.74 65.01Q76.44 67.61 70.63 67.61L70.63 67.61Q64.81 67.61 61.11 65.81L61.11 65.81L61.11 60.51Q63.45 61.61 66.09 62.25Q68.73 62.88 71 62.88L71 62.88Q74.33 62.88 75.91 61.61Q77.49 60.35 77.49 58.21L77.49 58.21Q77.49 56.29 76.04 54.96Q74.59 53.62 70.04 51.79L70.04 51.79Q65.35 49.89 63.43 47.46Q61.51 45.02 61.51 41.60L61.51 41.60Q61.51 37.31 64.55 34.85Q67.60 32.39 72.73 32.39L72.73 32.39Q77.66 32.39 82.53 34.54L82.53 34.54L80.75 39.11Q76.18 37.19 72.59 37.19L72.59 37.19Q69.88 37.19 68.47 38.38Q67.06 39.56 67.06 41.50L67.06 41.50Q67.06 42.84 67.63 43.79Q68.19 44.74 69.48 45.58Q70.77 46.43 74.12 47.81L74.12 47.81Q77.89 49.38 79.65 50.74Q81.41 52.10 82.23 53.81Q83.05 55.52 83.05 57.84Z"></path></svg>