<?xml version="1.0" encoding="UTF-8"?>
<svg xmlns="http://www.w3.org/2000/svg" xmlns:xlink="http://www.w3.org/1999/xlink" width="375pt" height="374.999991pt" viewBox="0 0 375 374.999991" version="1.2">
<g id="surface1">
<path style=" stroke:none;fill-rule:nonzero;fill:rgb(50.19989%,35.289001%,83.529663%);fill-opacity:1;" d="M 0.0117188 289.488281 L 277.269531 289.488281 L 277.269531 346.84375 L 0.0117188 346.84375 Z M 0.0117188 289.488281 "/>
<path style=" stroke:none;fill-rule:nonzero;fill:rgb(50.19989%,35.289001%,83.529663%);fill-opacity:1;" d="M 97.667969 232.25 L 277.316406 232.25 L 277.316406 307.816406 L 97.667969 307.816406 Z M 97.667969 232.25 "/>
<path style=" stroke:none;fill-rule:nonzero;fill:rgb(50.19989%,35.289001%,83.529663%);fill-opacity:1;" d="M 176.8125 175.007812 L 277.082031 175.007812 L 277.082031 261.039062 L 176.8125 261.039062 Z M 176.8125 175.007812 "/>
<path style=" stroke:none;fill-rule:nonzero;fill:rgb(50.19989%,35.289001%,83.529663%);fill-opacity:1;" d="M 207.851562 117.769531 L 277.269531 117.769531 L 277.269531 217.988281 L 207.851562 217.988281 Z M 207.851562 117.769531 "/>
<path style=" stroke:none;fill-rule:nonzero;fill:rgb(50.19989%,35.289001%,83.529663%);fill-opacity:1;" d="M 281.25 175.007812 C 279.714844 175.007812 278.183594 175.042969 276.648438 175.109375 C 275.117188 175.179688 273.585938 175.28125 272.0625 175.421875 C 270.535156 175.558594 269.011719 175.730469 267.492188 175.9375 C 265.976562 176.144531 264.464844 176.382812 262.960938 176.65625 C 261.457031 176.929688 259.957031 177.238281 258.46875 177.582031 C 256.980469 177.921875 255.503906 178.296875 254.035156 178.703125 C 252.566406 179.113281 251.109375 179.554688 249.667969 180.027344 C 248.222656 180.5 246.789062 181.003906 245.375 181.542969 C 243.957031 182.082031 242.554688 182.648438 241.167969 183.25 C 239.78125 183.851562 238.410156 184.484375 237.054688 185.144531 C 235.703125 185.808594 234.367188 186.5 233.054688 187.222656 C 231.738281 187.945312 230.441406 188.695312 229.164062 189.476562 C 227.890625 190.257812 226.636719 191.066406 225.402344 191.902344 C 224.171875 192.742188 222.960938 193.605469 221.777344 194.496094 C 220.589844 195.386719 219.429688 196.304688 218.292969 197.25 C 217.15625 198.191406 216.042969 199.160156 214.957031 200.15625 C 213.875 201.148438 212.816406 202.167969 211.785156 203.207031 C 210.753906 204.25 209.753906 205.3125 208.78125 206.398438 C 207.808594 207.484375 206.863281 208.59375 205.949219 209.722656 C 205.035156 210.851562 204.152344 212 203.300781 213.167969 C 202.449219 214.335938 201.625 215.523438 200.839844 216.726562 C 200.050781 217.933594 199.292969 219.15625 198.570312 220.394531 C 197.847656 221.632812 197.15625 222.886719 196.5 224.160156 C 195.84375 225.429688 195.222656 226.710938 194.636719 228.011719 C 194.050781 229.308594 193.496094 230.621094 192.980469 231.941406 C 192.464844 233.265625 191.980469 234.601562 191.535156 235.945312 C 191.089844 237.289062 190.683594 238.644531 190.308594 240.007812 C 189.9375 241.371094 189.601562 242.738281 189.300781 244.117188 C 189.003906 245.496094 188.738281 246.878906 188.515625 248.269531 C 188.289062 249.660156 188.101562 251.054688 187.953125 252.453125 C 187.800781 253.851562 187.6875 255.253906 187.613281 256.65625 C 187.539062 258.058594 187.5 259.464844 187.5 260.867188 C 187.5 262.273438 187.539062 263.679688 187.613281 265.082031 C 187.6875 266.484375 187.800781 267.886719 187.953125 269.285156 C 188.101562 270.683594 188.289062 272.078125 188.515625 273.46875 C 188.738281 274.855469 189.003906 276.242188 189.300781 277.621094 C 189.601562 278.996094 189.9375 280.367188 190.308594 281.730469 C 190.683594 283.09375 191.089844 284.449219 191.535156 285.792969 C 191.980469 287.136719 192.464844 288.472656 192.980469 289.792969 C 193.496094 291.117188 194.050781 292.429688 194.636719 293.726562 C 195.222656 295.023438 195.84375 296.308594 196.5 297.578125 C 197.15625 298.851562 197.847656 300.105469 198.570312 301.34375 C 199.292969 302.582031 200.050781 303.804688 200.839844 305.011719 C 201.625 306.214844 202.449219 307.402344 203.300781 308.570312 C 204.152344 309.738281 205.035156 310.886719 205.949219 312.015625 C 206.863281 313.144531 207.808594 314.253906 208.78125 315.339844 C 209.753906 316.425781 210.753906 317.488281 211.785156 318.53125 C 212.816406 319.570312 213.875 320.589844 214.957031 321.582031 C 216.042969 322.574219 217.15625 323.542969 218.292969 324.488281 C 219.429688 325.433594 220.589844 326.347656 221.777344 327.242188 C 222.960938 328.132812 224.171875 328.996094 225.402344 329.832031 C 226.636719 330.671875 227.890625 331.480469 229.164062 332.261719 C 230.441406 333.039062 231.738281 333.792969 233.054688 334.515625 C 234.367188 335.238281 235.703125 335.929688 237.054688 336.59375 C 238.410156 337.253906 239.78125 337.886719 241.167969 338.488281 C 242.554688 339.085938 243.957031 339.65625 245.375 340.195312 C 246.789062 340.730469 248.222656 341.238281 249.667969 341.710938 C 251.109375 342.183594 252.566406 342.625 254.035156 343.035156 C 255.503906 343.441406 256.980469 343.816406 258.46875 344.15625 C 259.957031 344.5 261.457031 344.804688 262.960938 345.082031 C 264.464844 345.355469 265.976562 345.59375 267.492188 345.800781 C 269.011719 346.007812 270.535156 346.179688 272.0625 346.316406 C 273.585938 346.453125 275.117188 346.558594 276.648438 346.628906 C 278.183594 346.695312 279.714844 346.730469 281.25 346.730469 C 282.785156 346.730469 284.316406 346.695312 285.851562 346.628906 C 287.382812 346.558594 288.914062 346.453125 290.4375 346.316406 C 291.964844 346.179688 293.488281 346.007812 295.007812 345.800781 C 296.523438 345.59375 298.035156 345.355469 299.539062 345.082031 C 301.042969 344.804688 302.542969 344.5 304.03125 344.15625 C 305.519531 343.816406 306.996094 343.441406 308.464844 343.03125 C 309.933594 342.625 311.390625 342.183594 312.832031 341.710938 C 314.277344 341.238281 315.710938 340.730469 317.125 340.195312 C 318.542969 339.65625 319.945312 339.085938 321.332031 338.488281 C 322.71875 337.886719 324.089844 337.253906 325.445312 336.59375 C 326.796875 335.929688 328.132812 335.238281 329.445312 334.515625 C 330.761719 333.792969 332.058594 333.039062 333.335938 332.261719 C 334.609375 331.480469 335.863281 330.671875 337.097656 329.832031 C 338.328125 328.996094 339.539062 328.132812 340.722656 327.242188 C 341.910156 326.347656 343.070312 325.433594 344.207031 324.488281 C 345.34375 323.542969 346.457031 322.574219 347.542969 321.582031 C 348.625 320.589844 349.683594 319.570312 350.714844 318.53125 C 351.746094 317.488281 352.746094 316.425781 353.71875 315.339844 C 354.691406 314.253906 355.636719 313.144531 356.550781 312.015625 C 357.464844 310.886719 358.347656 309.738281 359.199219 308.570312 C 360.050781 307.402344 360.875 306.214844 361.660156 305.011719 C 362.449219 303.804688 363.207031 302.582031 363.929688 301.34375 C 364.652344 300.105469 365.34375 298.851562 366 297.578125 C 366.65625 296.308594 367.277344 295.023438 367.863281 293.726562 C 368.449219 292.429688 369.003906 291.117188 369.519531 289.792969 C 370.035156 288.472656 370.519531 287.136719 370.964844 285.792969 C 371.410156 284.449219 371.816406 283.09375 372.191406 281.730469 C 372.5625 280.367188 372.898438 278.996094 373.199219 277.621094 C 373.496094 276.242188 373.761719 274.855469 373.984375 273.46875 C 374.210938 272.078125 374.398438 270.683594 374.546875 269.285156 C 374.699219 267.886719 374.8125 266.484375 374.886719 265.082031 C 374.960938 263.679688 375 262.273438 375 260.867188 C 375 259.464844 374.960938 258.058594 374.886719 256.65625 C 374.8125 255.253906 374.699219 253.851562 374.546875 252.453125 C 374.398438 251.054688 374.210938 249.660156 373.984375 248.269531 C 373.761719 246.878906 373.496094 245.496094 373.199219 244.117188 C 372.898438 242.738281 372.5625 241.371094 372.191406 240.007812 C 371.816406 238.644531 371.410156 237.289062 370.964844 235.945312 C 370.519531 234.601562 370.035156 233.265625 369.519531 231.941406 C 369.003906 230.621094 368.449219 229.308594 367.863281 228.011719 C 367.277344 226.710938 366.65625 225.429688 366 224.160156 C 365.34375 222.886719 364.652344 221.632812 363.929688 220.394531 C 363.207031 219.15625 362.449219 217.933594 361.660156 216.726562 C 360.875 215.523438 360.050781 214.335938 359.199219 213.167969 C 358.347656 212 357.464844 210.851562 356.550781 209.722656 C 355.636719 208.59375 354.691406 207.484375 353.71875 206.398438 C 352.746094 205.3125 351.746094 204.25 350.714844 203.207031 C 349.683594 202.167969 348.625 201.148438 347.542969 200.15625 C 346.457031 199.160156 345.34375 198.191406 344.207031 197.25 C 343.070312 196.304688 341.910156 195.386719 340.722656 194.496094 C 339.539062 193.605469 338.328125 192.742188 337.097656 191.902344 C 335.863281 191.066406 334.609375 190.257812 333.335938 189.476562 C 332.058594 188.695312 330.761719 187.945312 329.445312 187.222656 C 328.132812 186.5 326.796875 185.808594 325.445312 185.144531 C 324.089844 184.484375 322.71875 183.851562 321.332031 183.25 C 319.945312 182.648438 318.542969 182.082031 317.125 181.542969 C 315.710938 181.003906 314.277344 180.5 312.832031 180.027344 C 311.390625 179.554688 309.933594 179.113281 308.464844 178.703125 C 306.996094 178.296875 305.519531 177.921875 304.03125 177.582031 C 302.542969 177.238281 301.042969 176.929688 299.539062 176.65625 C 298.035156 176.382812 296.523438 176.144531 295.007812 175.9375 C 293.488281 175.730469 291.964844 175.558594 290.4375 175.421875 C 288.914062 175.28125 287.382812 175.179688 285.851562 175.109375 C 284.316406 175.042969 282.785156 175.007812 281.25 175.007812 Z M 281.25 175.007812 "/>
<path style=" stroke:none;fill-rule:nonzero;fill:rgb(50.19989%,35.289001%,83.529663%);fill-opacity:1;" d="M 242.492188 28.269531 C 241.667969 28.269531 240.847656 28.308594 240.03125 28.390625 C 239.210938 28.472656 238.398438 28.589844 237.59375 28.753906 C 236.785156 28.914062 235.988281 29.113281 235.203125 29.351562 C 234.414062 29.589844 233.640625 29.867188 232.882812 30.179688 C 232.121094 30.496094 231.378906 30.847656 230.652344 31.234375 C 229.929688 31.621094 229.222656 32.042969 228.539062 32.5 C 227.855469 32.957031 227.195312 33.449219 226.5625 33.96875 C 225.925781 34.492188 225.316406 35.042969 224.734375 35.625 C 224.152344 36.207031 223.601562 36.816406 223.082031 37.449219 C 222.558594 38.085938 222.070312 38.746094 221.613281 39.429688 C 221.15625 40.113281 220.734375 40.816406 220.34375 41.542969 C 219.957031 42.269531 219.605469 43.011719 219.292969 43.769531 C 218.976562 44.53125 218.699219 45.304688 218.460938 46.089844 C 218.222656 46.878906 218.023438 47.675781 217.863281 48.480469 C 217.703125 49.289062 217.582031 50.101562 217.5 50.917969 C 217.421875 51.738281 217.378906 52.558594 217.378906 53.382812 C 217.378906 54.203125 217.421875 55.023438 217.5 55.84375 C 217.582031 56.660156 217.703125 57.472656 217.863281 58.28125 C 218.023438 59.085938 218.222656 59.882812 218.460938 60.671875 C 218.699219 61.457031 218.976562 62.230469 219.292969 62.992188 C 219.605469 63.75 219.957031 64.492188 220.34375 65.21875 C 220.734375 65.945312 221.15625 66.648438 221.613281 67.332031 C 222.070312 68.015625 222.558594 68.675781 223.082031 69.3125 C 223.601562 69.945312 224.152344 70.554688 224.734375 71.136719 C 225.316406 71.71875 225.925781 72.269531 226.5625 72.792969 C 227.195312 73.3125 227.855469 73.804688 228.539062 74.261719 C 229.222656 74.71875 229.929688 75.140625 230.652344 75.527344 C 231.378906 75.914062 232.121094 76.265625 232.882812 76.582031 C 233.640625 76.894531 234.414062 77.171875 235.203125 77.410156 C 235.988281 77.648438 236.785156 77.847656 237.59375 78.011719 C 238.398438 78.171875 239.210938 78.289062 240.03125 78.371094 C 240.847656 78.453125 241.667969 78.492188 242.492188 78.492188 C 243.3125 78.492188 244.132812 78.453125 244.953125 78.371094 C 245.769531 78.289062 246.585938 78.171875 247.390625 78.011719 C 248.195312 77.847656 248.992188 77.648438 249.78125 77.410156 C 250.566406 77.171875 251.339844 76.894531 252.101562 76.582031 C 252.859375 76.265625 253.605469 75.914062 254.328125 75.527344 C 255.054688 75.140625 255.757812 74.71875 256.441406 74.261719 C 257.125 73.804688 257.785156 73.3125 258.421875 72.792969 C 259.058594 72.269531 259.667969 71.71875 260.25 71.136719 C 260.828125 70.554688 261.382812 69.945312 261.902344 69.3125 C 262.425781 68.675781 262.914062 68.015625 263.371094 67.332031 C 263.828125 66.648438 264.25 65.945312 264.636719 65.21875 C 265.027344 64.492188 265.375 63.75 265.691406 62.992188 C 266.007812 62.230469 266.28125 61.457031 266.523438 60.671875 C 266.761719 59.882812 266.960938 59.085938 267.121094 58.28125 C 267.28125 57.472656 267.402344 56.660156 267.480469 55.84375 C 267.5625 55.023438 267.601562 54.203125 267.601562 53.382812 C 267.601562 52.558594 267.5625 51.738281 267.480469 50.917969 C 267.402344 50.101562 267.28125 49.289062 267.121094 48.480469 C 266.960938 47.675781 266.761719 46.878906 266.523438 46.089844 C 266.28125 45.304688 266.007812 44.53125 265.691406 43.769531 C 265.375 43.011719 265.027344 42.269531 264.636719 41.542969 C 264.25 40.816406 263.828125 40.113281 263.371094 39.429688 C 262.914062 38.746094 262.425781 38.085938 261.902344 37.449219 C 261.382812 36.816406 260.828125 36.207031 260.25 35.625 C 259.667969 35.042969 259.058594 34.492188 258.421875 33.96875 C 257.785156 33.449219 257.125 32.957031 256.441406 32.5 C 255.757812 32.042969 255.054688 31.621094 254.328125 31.234375 C 253.605469 30.847656 252.859375 30.496094 252.101562 30.179688 C 251.339844 29.867188 250.566406 29.589844 249.78125 29.351562 C 248.992188 29.113281 248.195312 28.914062 247.390625 28.753906 C 246.585938 28.589844 245.769531 28.472656 244.953125 28.390625 C 244.132812 28.308594 243.3125 28.269531 242.492188 28.269531 Z M 242.492188 28.269531 "/>
<path style=" stroke:none;fill-rule:nonzero;fill:rgb(100%,100%,100%);fill-opacity:1;" d="M 303.945312 234.054688 C 303.066406 234.054688 302.191406 234.097656 301.316406 234.183594 C 300.445312 234.273438 299.578125 234.398438 298.714844 234.570312 C 297.855469 234.742188 297.003906 234.957031 296.164062 235.210938 C 295.320312 235.464844 294.496094 235.761719 293.683594 236.097656 C 292.875 236.433594 292.082031 236.808594 291.304688 237.222656 C 290.53125 237.636719 289.78125 238.085938 289.050781 238.574219 C 288.320312 239.0625 287.613281 239.585938 286.9375 240.140625 C 286.257812 240.699219 285.609375 241.289062 284.988281 241.910156 C 284.367188 242.53125 283.777344 243.179688 283.21875 243.859375 C 282.664062 244.539062 282.140625 245.242188 281.652344 245.972656 C 281.164062 246.703125 280.714844 247.453125 280.300781 248.230469 C 279.886719 249.003906 279.511719 249.796875 279.175781 250.609375 C 278.839844 251.417969 278.542969 252.246094 278.289062 253.085938 C 278.03125 253.925781 277.820312 254.777344 277.648438 255.636719 C 277.476562 256.5 277.347656 257.367188 277.261719 258.242188 C 277.175781 259.113281 277.132812 259.992188 277.132812 260.867188 C 277.132812 261.746094 277.175781 262.621094 277.261719 263.496094 C 277.347656 264.371094 277.476562 265.238281 277.648438 266.101562 C 277.820312 266.960938 278.03125 267.8125 278.289062 268.652344 C 278.542969 269.492188 278.839844 270.316406 279.175781 271.128906 C 279.511719 271.941406 279.886719 272.734375 280.300781 273.507812 C 280.714844 274.28125 281.164062 275.035156 281.652344 275.765625 C 282.140625 276.496094 282.664062 277.199219 283.21875 277.878906 C 283.777344 278.558594 284.367188 279.207031 284.988281 279.828125 C 285.609375 280.449219 286.257812 281.039062 286.9375 281.59375 C 287.613281 282.152344 288.320312 282.675781 289.050781 283.164062 C 289.78125 283.652344 290.53125 284.101562 291.304688 284.515625 C 292.082031 284.929688 292.875 285.304688 293.683594 285.640625 C 294.496094 285.976562 295.320312 286.273438 296.164062 286.527344 C 297.003906 286.78125 297.855469 286.996094 298.714844 287.167969 C 299.578125 287.335938 300.445312 287.464844 301.316406 287.550781 C 302.191406 287.636719 303.066406 287.679688 303.945312 287.679688 C 304.824219 287.679688 305.699219 287.636719 306.574219 287.550781 C 307.449219 287.464844 308.316406 287.335938 309.175781 287.167969 C 310.039062 286.996094 310.890625 286.78125 311.730469 286.527344 C 312.570312 286.273438 313.394531 285.976562 314.207031 285.640625 C 315.019531 285.304688 315.8125 284.929688 316.585938 284.515625 C 317.359375 284.101562 318.113281 283.652344 318.84375 283.164062 C 319.570312 282.675781 320.277344 282.152344 320.957031 281.59375 C 321.632812 281.039062 322.285156 280.449219 322.90625 279.828125 C 323.527344 279.207031 324.113281 278.558594 324.671875 277.878906 C 325.230469 277.199219 325.75 276.496094 326.238281 275.765625 C 326.726562 275.035156 327.179688 274.28125 327.59375 273.507812 C 328.007812 272.734375 328.382812 271.941406 328.71875 271.128906 C 329.054688 270.316406 329.347656 269.492188 329.605469 268.652344 C 329.859375 267.8125 330.070312 266.960938 330.242188 266.101562 C 330.414062 265.238281 330.542969 264.371094 330.628906 263.496094 C 330.714844 262.621094 330.757812 261.746094 330.757812 260.867188 C 330.757812 259.992188 330.714844 259.113281 330.628906 258.242188 C 330.542969 257.367188 330.414062 256.5 330.242188 255.636719 C 330.070312 254.777344 329.859375 253.925781 329.605469 253.085938 C 329.347656 252.246094 329.054688 251.417969 328.71875 250.609375 C 328.382812 249.796875 328.007812 249.003906 327.59375 248.230469 C 327.179688 247.453125 326.726562 246.703125 326.238281 245.972656 C 325.75 245.242188 325.230469 244.539062 324.671875 243.859375 C 324.113281 243.179688 323.527344 242.53125 322.90625 241.910156 C 322.285156 241.289062 321.632812 240.699219 320.957031 240.140625 C 320.277344 239.585938 319.570312 239.0625 318.84375 238.574219 C 318.113281 238.085938 317.359375 237.636719 316.585938 237.222656 C 315.8125 236.808594 315.019531 236.433594 314.207031 236.097656 C 313.394531 235.761719 312.570312 235.464844 311.730469 235.210938 C 310.890625 234.957031 310.039062 234.742188 309.175781 234.570312 C 308.316406 234.398438 307.449219 234.273438 306.574219 234.183594 C 305.699219 234.097656 304.824219 234.054688 303.945312 234.054688 Z M 303.945312 234.054688 "/>
</g>
</svg>
